<mxfile host="app.diagrams.net" agent="Mozilla/5.0 (Macintosh; Intel Mac OS X 10_15_7) AppleWebKit/537.36 (KHTML, like Gecko) Chrome/131.0.0.0 Safari/537.36" version="24.9.0">
  <diagram name="Страница — 1" id="ugC-IzpUDZVobS7pQV1R">
    <mxGraphModel dx="821" dy="520" grid="1" gridSize="10" guides="1" tooltips="1" connect="1" arrows="1" fold="1" page="1" pageScale="1" pageWidth="827" pageHeight="1169" math="0" shadow="0">
      <root>
        <mxCell id="0" />
        <mxCell id="1" parent="0" />
        <mxCell id="G1y-FkVzRdBGegdZIcF5-6" style="edgeStyle=orthogonalEdgeStyle;rounded=0;orthogonalLoop=1;jettySize=auto;html=1;entryX=0.5;entryY=0;entryDx=0;entryDy=0;" edge="1" parent="1" source="G1y-FkVzRdBGegdZIcF5-1" target="G1y-FkVzRdBGegdZIcF5-5">
          <mxGeometry relative="1" as="geometry" />
        </mxCell>
        <mxCell id="G1y-FkVzRdBGegdZIcF5-1" value="Start fragment&lt;div&gt;&amp;nbsp;timer&lt;/div&gt;" style="shape=parallelogram;perimeter=parallelogramPerimeter;whiteSpace=wrap;html=1;fixedSize=1;" vertex="1" parent="1">
          <mxGeometry x="340" y="50" width="120" height="60" as="geometry" />
        </mxCell>
        <mxCell id="G1y-FkVzRdBGegdZIcF5-7" style="edgeStyle=orthogonalEdgeStyle;rounded=0;orthogonalLoop=1;jettySize=auto;html=1;" edge="1" parent="1" source="G1y-FkVzRdBGegdZIcF5-5" target="G1y-FkVzRdBGegdZIcF5-8">
          <mxGeometry relative="1" as="geometry">
            <mxPoint x="400" y="290" as="targetPoint" />
          </mxGeometry>
        </mxCell>
        <mxCell id="G1y-FkVzRdBGegdZIcF5-9" value="Yes" style="edgeLabel;html=1;align=center;verticalAlign=middle;resizable=0;points=[];" vertex="1" connectable="0" parent="G1y-FkVzRdBGegdZIcF5-7">
          <mxGeometry x="-0.28" y="-1" relative="1" as="geometry">
            <mxPoint as="offset" />
          </mxGeometry>
        </mxCell>
        <mxCell id="G1y-FkVzRdBGegdZIcF5-10" style="edgeStyle=orthogonalEdgeStyle;rounded=0;orthogonalLoop=1;jettySize=auto;html=1;" edge="1" parent="1" source="G1y-FkVzRdBGegdZIcF5-5" target="G1y-FkVzRdBGegdZIcF5-11">
          <mxGeometry relative="1" as="geometry">
            <mxPoint x="280" y="200" as="targetPoint" />
          </mxGeometry>
        </mxCell>
        <mxCell id="G1y-FkVzRdBGegdZIcF5-13" value="No" style="edgeLabel;html=1;align=center;verticalAlign=middle;resizable=0;points=[];" vertex="1" connectable="0" parent="G1y-FkVzRdBGegdZIcF5-10">
          <mxGeometry x="-0.16" relative="1" as="geometry">
            <mxPoint as="offset" />
          </mxGeometry>
        </mxCell>
        <mxCell id="G1y-FkVzRdBGegdZIcF5-5" value="Is fragment received ?" style="rhombus;whiteSpace=wrap;html=1;" vertex="1" parent="1">
          <mxGeometry x="310" y="160" width="180" height="80" as="geometry" />
        </mxCell>
        <mxCell id="G1y-FkVzRdBGegdZIcF5-8" value="Stop timer" style="rounded=1;whiteSpace=wrap;html=1;" vertex="1" parent="1">
          <mxGeometry x="340" y="360" width="120" height="60" as="geometry" />
        </mxCell>
        <mxCell id="G1y-FkVzRdBGegdZIcF5-14" style="edgeStyle=orthogonalEdgeStyle;rounded=0;orthogonalLoop=1;jettySize=auto;html=1;" edge="1" parent="1" source="G1y-FkVzRdBGegdZIcF5-11">
          <mxGeometry relative="1" as="geometry">
            <mxPoint x="165" y="290" as="targetPoint" />
          </mxGeometry>
        </mxCell>
        <mxCell id="G1y-FkVzRdBGegdZIcF5-15" value="Yes" style="edgeLabel;html=1;align=center;verticalAlign=middle;resizable=0;points=[];" vertex="1" connectable="0" parent="G1y-FkVzRdBGegdZIcF5-14">
          <mxGeometry x="-0.2077" y="-2" relative="1" as="geometry">
            <mxPoint as="offset" />
          </mxGeometry>
        </mxCell>
        <mxCell id="G1y-FkVzRdBGegdZIcF5-17" style="edgeStyle=orthogonalEdgeStyle;rounded=0;orthogonalLoop=1;jettySize=auto;html=1;entryX=0.5;entryY=1;entryDx=0;entryDy=0;" edge="1" parent="1" source="G1y-FkVzRdBGegdZIcF5-11" target="G1y-FkVzRdBGegdZIcF5-16">
          <mxGeometry relative="1" as="geometry" />
        </mxCell>
        <mxCell id="G1y-FkVzRdBGegdZIcF5-18" value="No" style="edgeLabel;html=1;align=center;verticalAlign=middle;resizable=0;points=[];" vertex="1" connectable="0" parent="G1y-FkVzRdBGegdZIcF5-17">
          <mxGeometry x="-0.12" relative="1" as="geometry">
            <mxPoint as="offset" />
          </mxGeometry>
        </mxCell>
        <mxCell id="G1y-FkVzRdBGegdZIcF5-11" value="Is waiting time&amp;nbsp;&lt;div&gt;more than 3 seconds?&lt;/div&gt;" style="rhombus;whiteSpace=wrap;html=1;" vertex="1" parent="1">
          <mxGeometry x="70" y="160" width="190" height="80" as="geometry" />
        </mxCell>
        <mxCell id="G1y-FkVzRdBGegdZIcF5-19" style="edgeStyle=orthogonalEdgeStyle;rounded=0;orthogonalLoop=1;jettySize=auto;html=1;exitX=1;exitY=0.5;exitDx=0;exitDy=0;" edge="1" parent="1" source="G1y-FkVzRdBGegdZIcF5-16" target="G1y-FkVzRdBGegdZIcF5-5">
          <mxGeometry relative="1" as="geometry">
            <Array as="points">
              <mxPoint x="230" y="100" />
              <mxPoint x="230" y="160" />
            </Array>
          </mxGeometry>
        </mxCell>
        <mxCell id="G1y-FkVzRdBGegdZIcF5-16" value="50 milliseconds" style="shape=delay;whiteSpace=wrap;html=1;" vertex="1" parent="1">
          <mxGeometry x="125" y="80" width="80" height="40" as="geometry" />
        </mxCell>
        <mxCell id="G1y-FkVzRdBGegdZIcF5-21" style="edgeStyle=orthogonalEdgeStyle;rounded=0;orthogonalLoop=1;jettySize=auto;html=1;entryX=0;entryY=0.5;entryDx=0;entryDy=0;" edge="1" parent="1" source="G1y-FkVzRdBGegdZIcF5-20" target="G1y-FkVzRdBGegdZIcF5-16">
          <mxGeometry relative="1" as="geometry">
            <mxPoint x="50" y="100" as="targetPoint" />
            <Array as="points">
              <mxPoint x="50" y="320" />
              <mxPoint x="50" y="100" />
            </Array>
          </mxGeometry>
        </mxCell>
        <mxCell id="G1y-FkVzRdBGegdZIcF5-20" value="Resend fragment&lt;div&gt;Reset waiting time&lt;/div&gt;" style="rounded=0;whiteSpace=wrap;html=1;" vertex="1" parent="1">
          <mxGeometry x="105" y="290" width="120" height="60" as="geometry" />
        </mxCell>
      </root>
    </mxGraphModel>
  </diagram>
</mxfile>
